<svg xmlns="http://www.w3.org/2000/svg" version="1.1" xmlns:xlink="http://www.w3.org/1999/xlink" xmlns:svgjs="http://svgjs.dev/svgjs" width="1500" height="1500" viewBox="0 0 1500 1500"><rect width="1500" height="1500" fill="#ffffff"></rect><g transform="matrix(0.6666666666666666,0,0,0.6666666666666666,249.39393939393938,651.7936321902679)"><svg viewBox="0 0 396 78" data-background-color="#000000" preserveAspectRatio="xMidYMid meet" height="295" width="1500" xmlns="http://www.w3.org/2000/svg" xmlns:xlink="http://www.w3.org/1999/xlink"><g id="tight-bounds" transform="matrix(1,0,0,1,0.2400000000000091,-0.050355817835054495)"><svg viewBox="0 0 395.52 78.1007116356701" height="78.1007116356701" width="395.52"><g><svg viewBox="0 0 515.4433669002203 101.78118366401954" height="78.1007116356701" width="395.52"><g transform="matrix(1,0,0,1,119.9233669002204,19.43781566883933)"><svg viewBox="0 0 395.52 62.905552326340874" height="62.905552326340874" width="395.52"><g id="textblocktransform"><svg viewBox="0 0 395.52 62.905552326340874" height="62.905552326340874" width="395.52" id="textblock"><g><svg viewBox="0 0 395.52 62.905552326340874" height="62.905552326340874" width="395.52"><g transform="matrix(1,0,0,1,0,0)"><svg width="395.52" viewBox="1.5393332174714858 -32.44024483397823 279.5678815506309 44.46393321902374" height="62.905552326340874" data-palette-color="url(#2b1a0a62-abd3-4820-a1a8-9d59f31ddaa4)"></svg></g></svg></g></svg></g></svg></g><g><svg viewBox="0 0 101.4964687335435 101.78118366401954" height="101.78118366401954" width="101.4964687335435"><g><svg xmlns="http://www.w3.org/2000/svg" xmlns:xlink="http://www.w3.org/1999/xlink" version="1.1" x="0" y="0" viewBox="3.6159474091066253 3.625 92.38405259089338 92.64320563768128" enable-background="new 0 0 100 100" xml:space="preserve" height="101.78118366401954" width="101.4964687335435" class="icon-icon-0" data-fill-palette-color="accent" id="icon-0"></svg></g></svg></g></svg></g><defs></defs><mask id="08a7bdd3-cdce-4e6b-8ed8-e55d4310612b"><g id="SvgjsG1071"><svg viewBox="0 0 395.52 78.1007116356701" height="78.1007116356701" width="395.52"><g><svg viewBox="0 0 515.4433669002203 101.78118366401954" height="78.1007116356701" width="395.52"><g transform="matrix(1,0,0,1,119.9233669002204,19.43781566883933)"><svg viewBox="0 0 395.52 62.905552326340874" height="62.905552326340874" width="395.52"><g id="SvgjsG1070"><svg viewBox="0 0 395.52 62.905552326340874" height="62.905552326340874" width="395.52" id="SvgjsSvg1069"><g><svg viewBox="0 0 395.52 62.905552326340874" height="62.905552326340874" width="395.52"><g transform="matrix(1,0,0,1,0,0)"><svg width="395.52" viewBox="1.5393332174714858 -32.44024483397823 279.5678815506309 44.46393321902374" height="62.905552326340874" data-palette-color="url(#2b1a0a62-abd3-4820-a1a8-9d59f31ddaa4)"><path d="M21.658 10.383v0c-2.496 0.344-4.875 0.223-7.136-0.361-2.26-0.577-4.287-1.543-6.082-2.898-1.789-1.362-3.27-3.053-4.443-5.071-1.166-2.02-1.921-4.278-2.265-6.775v0c-0.344-2.503-0.228-4.885 0.35-7.144 0.584-2.261 1.554-4.285 2.909-6.073 1.361-1.796 3.052-3.277 5.071-4.443 2.019-1.173 4.277-1.931 6.774-2.275v0c1.724-0.237 3.416-0.265 5.076-0.083 1.661 0.189 3.182 0.602 4.561 1.24v0c0.246 0.128 0.44 0.289 0.582 0.485 0.141 0.196 0.227 0.406 0.258 0.631v0c0.063 0.456-0.032 0.842-0.284 1.159-0.252 0.317-0.54 0.498-0.864 0.543v0c-0.165 0.023-0.324 0.018-0.477-0.015-0.152-0.026-0.295-0.064-0.429-0.112v0c-1.194-0.462-2.463-0.782-3.807-0.96-1.35-0.178-2.755-0.166-4.214 0.034v0c-2.787 0.384-5.18 1.356-7.18 2.916-1.998 1.567-3.463 3.539-4.394 5.915-0.931 2.376-1.205 4.961-0.821 7.754v0c0.384 2.787 1.345 5.199 2.883 7.235 1.539 2.036 3.482 3.538 5.829 4.507 2.346 0.962 4.913 1.252 7.701 0.868v0c1.46-0.201 2.9-0.614 4.321-1.24 1.422-0.62 2.619-1.36 3.591-2.221v0l-0.108 1.055-1.54-11.195 0.827 0.583-8.421 1.159c-0.423 0.058-0.8-0.041-1.131-0.299-0.331-0.251-0.523-0.571-0.576-0.96v0c-0.063-0.456 0.034-0.832 0.288-1.13 0.255-0.298 0.594-0.475 1.017-0.534v0l9.293-1.279c0.423-0.058 0.792 0.032 1.107 0.272 0.315 0.233 0.501 0.56 0.559 0.983v0l1.614 11.729c0.035 0.258 0.003 0.511-0.097 0.761-0.101 0.243-0.253 0.462-0.454 0.658v0c-1.293 1.167-2.785 2.157-4.478 2.968-1.692 0.812-3.495 1.349-5.41 1.613zM57.4-19.404v0c0.424-0.044 0.791 0.066 1.1 0.33 0.302 0.264 0.475 0.608 0.518 1.032v0l2.258 21.995c0.04 0.391-0.071 0.748-0.332 1.069-0.262 0.322-0.588 0.503-0.98 0.543v0c-0.458 0.047-0.831-0.062-1.119-0.327-0.295-0.265-0.463-0.592-0.503-0.984v0l-0.598-5.82 0.796-0.473c0.093 0.909-0.063 1.863-0.47 2.863-0.407 0.993-1.01 1.943-1.808 2.849-0.798 0.906-1.765 1.672-2.901 2.299-1.135 0.626-2.403 1.011-3.802 1.154v0c-2.188 0.225-4.21-0.144-6.065-1.106-1.861-0.962-3.391-2.383-4.589-4.264-1.199-1.887-1.926-4.068-2.18-6.541v0c-0.261-2.547 0.012-4.84 0.822-6.88 0.816-2.041 2.029-3.703 3.639-4.988 1.611-1.285 3.493-2.038 5.649-2.259v0c1.399-0.144 2.734-0.036 4.004 0.323 1.271 0.365 2.407 0.926 3.41 1.68 0.995 0.749 1.811 1.644 2.447 2.684 0.636 1.04 1.015 2.148 1.135 3.322v0l-1.11-0.63-0.638-6.207c-0.044-0.424 0.052-0.796 0.288-1.116 0.229-0.318 0.572-0.501 1.029-0.548zM49.567 4.361v0c1.724-0.177 3.21-0.782 4.458-1.815 1.241-1.032 2.165-2.377 2.772-4.034 0.6-1.663 0.8-3.47 0.6-5.42v0c-0.197-1.923-0.756-3.612-1.676-5.065-0.927-1.453-2.103-2.569-3.531-3.347-1.433-0.771-3.012-1.068-4.736-0.891v0c-1.691 0.174-3.168 0.768-4.431 1.782-1.262 1.021-2.199 2.337-2.811 3.948-0.605 1.61-0.806 3.41-0.602 5.399v0c0.2 1.95 0.756 3.679 1.669 5.187 0.911 1.501 2.09 2.63 3.534 3.387 1.445 0.756 3.029 1.046 4.754 0.869zM78.301-21.052v0c2.029-0.129 3.796 0.293 5.301 1.267 1.504 0.967 2.586 2.481 3.245 4.544v0l-0.677 0.233 0.234-0.897c0.364-1.005 1.017-1.975 1.959-2.91 0.943-0.928 2.034-1.692 3.272-2.292 1.244-0.607 2.518-0.951 3.822-1.034v0c2.063-0.131 3.751 0.206 5.064 1.011 1.313 0.798 2.303 1.925 2.97 3.379 0.666 1.447 1.059 3.102 1.177 4.965v0l0.881 13.882c0.025 0.393-0.093 0.744-0.353 1.055-0.254 0.31-0.594 0.479-1.02 0.505v0c-0.426 0.027-0.788-0.097-1.086-0.372-0.298-0.275-0.46-0.609-0.485-1.001v0l-0.872-13.732c-0.085-1.337-0.372-2.548-0.861-3.633-0.496-1.084-1.225-1.926-2.185-2.527-0.953-0.594-2.198-0.842-3.735-0.744v0c-1.344 0.085-2.607 0.493-3.79 1.222-1.182 0.736-2.124 1.685-2.825 2.845-0.695 1.16-0.999 2.408-0.915 3.746v0l0.872 13.732c0.025 0.393-0.093 0.744-0.354 1.054-0.261 0.31-0.601 0.479-1.02 0.506v0c-0.426 0.027-0.788-0.097-1.085-0.372-0.298-0.275-0.46-0.609-0.485-1.001v0l-0.881-13.882c-0.085-1.337-0.358-2.532-0.819-3.586-0.461-1.053-1.151-1.871-2.07-2.453-0.925-0.583-2.14-0.826-3.643-0.731v0c-1.337 0.085-2.584 0.485-3.742 1.2-1.15 0.714-2.061 1.634-2.731 2.758-0.663 1.124-0.953 2.355-0.867 3.693v0l0.881 13.882c0.025 0.393-0.1 0.744-0.374 1.055-0.281 0.312-0.617 0.48-1.01 0.506v0c-0.452 0.029-0.821-0.095-1.105-0.371-0.278-0.276-0.43-0.611-0.455-1.003v0l-1.395-21.966c-0.025-0.393 0.093-0.744 0.354-1.055 0.26-0.317 0.6-0.489 1.02-0.515v0c0.426-0.027 0.788 0.1 1.086 0.382 0.298 0.275 0.46 0.609 0.484 1.001v0l0.29 4.561-1.213 1.89c0.038-0.984 0.295-1.983 0.772-2.995 0.476-1.019 1.132-1.949 1.967-2.79 0.828-0.841 1.793-1.533 2.894-2.077 1.094-0.544 2.264-0.855 3.508-0.935zM123.999 2.671v0c-2.519 0.058-4.758-0.43-6.715-1.466-1.958-1.035-3.499-2.507-4.623-4.414-1.124-1.908-1.716-4.155-1.776-6.741v0c-0.064-2.779 0.431-5.165 1.485-7.156 1.048-1.991 2.436-3.54 4.164-4.648 1.728-1.1 3.576-1.673 5.542-1.718v0c1.44-0.033 2.845 0.188 4.216 0.663 1.371 0.475 2.592 1.201 3.662 2.176 1.069 0.976 1.947 2.176 2.633 3.6 0.686 1.425 1.068 3.086 1.146 4.985v0c0.009 0.393-0.13 0.733-0.417 1.02-0.287 0.28-0.627 0.425-1.02 0.434v0l-19.695 0.454-0.651-2.636 19.355-0.446-0.626 0.605-0.023-0.98c-0.202-1.536-0.739-2.834-1.61-3.894-0.878-1.06-1.923-1.856-3.136-2.388-1.206-0.526-2.462-0.773-3.768-0.744v0c-0.986 0.023-1.988 0.243-3.006 0.66-1.024 0.41-1.946 1.045-2.767 1.904-0.814 0.852-1.466 1.931-1.956 3.236-0.497 1.305-0.725 2.841-0.684 4.607v0c0.045 1.933 0.478 3.677 1.301 5.231 0.823 1.555 1.981 2.772 3.475 3.651 1.494 0.886 3.288 1.305 5.381 1.257v0c1.113-0.026 2.126-0.212 3.038-0.561 0.912-0.348 1.712-0.8 2.399-1.355 0.694-0.556 1.264-1.136 1.71-1.74v0c0.353-0.302 0.693-0.456 1.02-0.464v0c0.36-0.008 0.666 0.115 0.919 0.369 0.246 0.261 0.373 0.555 0.38 0.882v0c0.009 0.393-0.146 0.74-0.466 1.041v0c-0.953 1.202-2.205 2.255-3.758 3.157-1.553 0.903-3.262 1.376-5.129 1.419zM164.658-32.215v0c0.453 0.004 0.819 0.137 1.096 0.399 0.278 0.269 0.415 0.6 0.412 0.994v0c-0.002 0.227-0.054 0.47-0.156 0.728v0l-13.388 31.237c-0.163 0.325-0.375 0.567-0.636 0.725-0.268 0.164-0.532 0.245-0.792 0.243v0c-0.293-0.003-0.569-0.088-0.828-0.257-0.265-0.162-0.447-0.391-0.544-0.685v0l-12.792-31.41c-0.033-0.094-0.065-0.207-0.097-0.341-0.032-0.134-0.048-0.28-0.047-0.44v0c0.004-0.427 0.163-0.772 0.479-1.036 0.309-0.257 0.627-0.385 0.954-0.382v0c0.693 0.006 1.184 0.37 1.47 1.092v0l12.029 29.484-0.88-0.007 12.331-29.376c0.332-0.651 0.795-0.973 1.389-0.968zM193.572-9.22v0c-0.1 2.491-0.738 4.704-1.917 6.639-1.172 1.935-2.712 3.431-4.623 4.489-1.91 1.051-4.044 1.53-6.402 1.436v0c-2.325-0.093-4.404-0.74-6.238-1.941-1.84-1.208-3.267-2.823-4.28-4.845-1.02-2.022-1.48-4.279-1.381-6.77v0c0.101-2.518 0.74-4.738 1.918-6.659 1.171-1.915 2.722-3.407 4.652-4.478 1.924-1.071 4.049-1.56 6.374-1.466v0c2.358 0.094 4.447 0.751 6.266 1.971 1.819 1.22 3.236 2.831 4.251 4.834 1.021 2.009 1.481 4.273 1.38 6.79zM190.624-9.337v0c0.08-1.992-0.259-3.783-1.016-5.375-0.751-1.585-1.821-2.855-3.211-3.811-1.39-0.956-3-1.471-4.832-1.545v0c-1.799-0.072-3.429 0.313-4.89 1.156-1.461 0.842-2.64 2.023-3.534 3.542-0.895 1.525-1.382 3.284-1.462 5.276v0c-0.08 1.998 0.266 3.784 1.037 5.355 0.771 1.572 1.852 2.836 3.241 3.793 1.39 0.956 2.984 1.47 4.783 1.542v0c1.832 0.073 3.479-0.311 4.94-1.154 1.461-0.842 2.629-2.017 3.503-3.523 0.881-1.506 1.361-3.258 1.441-5.256zM200.236 3.838v0c-0.452-0.03-0.802-0.2-1.048-0.51-0.24-0.31-0.347-0.661-0.322-1.053v0l1.442-21.963c0.026-0.392 0.188-0.726 0.487-1 0.299-0.281 0.658-0.408 1.077-0.38v0c0.426 0.028 0.768 0.201 1.028 0.518 0.26 0.311 0.377 0.663 0.352 1.056v0l-0.483 7.354-0.748 0.091c0.175-1.138 0.535-2.253 1.082-3.346 0.547-1.1 1.26-2.095 2.14-2.986 0.88-0.891 1.905-1.595 3.075-2.114 1.163-0.512 2.446-0.721 3.85-0.629v0c0.592 0.039 1.156 0.196 1.692 0.472 0.543 0.283 0.796 0.704 0.759 1.263v0c-0.032 0.492-0.19 0.859-0.473 1.101-0.276 0.242-0.594 0.352-0.953 0.328v0c-0.293-0.019-0.607-0.12-0.943-0.302-0.328-0.189-0.772-0.301-1.33-0.338v0c-0.911-0.06-1.844 0.15-2.798 0.628-0.953 0.479-1.833 1.152-2.638 2.022-0.812 0.862-1.477 1.844-1.997 2.945-0.513 1.095-0.807 2.215-0.882 3.359v0l-0.795 12.114c-0.026 0.392-0.195 0.725-0.507 0.999-0.319 0.273-0.674 0.397-1.067 0.371zM217.905-19.97v0l11.408 0.981c0.392 0.034 0.705 0.201 0.941 0.502 0.235 0.301 0.336 0.648 0.302 1.04v0c-0.031 0.359-0.187 0.656-0.469 0.893-0.282 0.243-0.619 0.348-1.01 0.315v0l-11.408-0.981c-0.392-0.034-0.715-0.202-0.97-0.505-0.248-0.302-0.357-0.633-0.327-0.992v0c0.034-0.392 0.198-0.706 0.493-0.941 0.302-0.242 0.649-0.346 1.04-0.312zM223.54-26.431v0c0.425 0.037 0.765 0.213 1.018 0.529 0.247 0.316 0.354 0.669 0.32 1.061v0l-2.113 24.57c-0.079 0.917-0.015 1.615 0.192 2.094 0.207 0.473 0.5 0.802 0.878 0.988 0.379 0.18 0.765 0.287 1.157 0.321v0c0.259 0.022 0.499-0.001 0.719-0.069 0.219-0.061 0.459-0.081 0.717-0.059v0c0.299 0.026 0.545 0.161 0.738 0.405 0.186 0.25 0.263 0.555 0.233 0.913v0c-0.039 0.458-0.331 0.818-0.876 1.079-0.552 0.267-1.186 0.37-1.903 0.308v0c-0.292-0.025-0.729-0.086-1.309-0.182-0.587-0.104-1.176-0.335-1.767-0.694-0.598-0.366-1.065-0.958-1.403-1.777-0.338-0.819-0.444-1.962-0.318-3.43v0l2.126-24.719c0.034-0.392 0.199-0.722 0.497-0.991 0.304-0.268 0.669-0.384 1.094-0.347zM244.465 8.258v0c-2.505-0.272-4.661-1.048-6.466-2.33-1.806-1.282-3.141-2.942-4.007-4.981-0.865-2.038-1.159-4.343-0.88-6.915v0c0.3-2.764 1.102-5.064 2.408-6.901 1.299-1.837 2.877-3.192 4.735-4.063 1.857-0.865 3.764-1.191 5.719-0.979v0c1.432 0.155 2.796 0.558 4.094 1.208 1.297 0.65 2.413 1.529 3.345 2.636 0.933 1.107 1.646 2.411 2.141 3.913 0.494 1.502 0.656 3.199 0.484 5.092v0c-0.042 0.391-0.224 0.71-0.546 0.957-0.321 0.24-0.677 0.339-1.068 0.296v0l-19.586-2.123-0.301-2.698 19.248 2.086-0.7 0.518 0.105-0.974c0-1.549-0.362-2.906-1.087-4.071-0.732-1.166-1.664-2.092-2.797-2.778-1.127-0.679-2.34-1.088-3.639-1.229v0c-0.981-0.106-2.003-0.019-3.066 0.261-1.069 0.273-2.066 0.782-2.992 1.527-0.918 0.739-1.706 1.723-2.362 2.952-0.663 1.229-1.09 2.722-1.28 4.478v0c-0.208 1.922-0.006 3.708 0.606 5.357 0.613 1.649 1.602 3.007 2.969 4.073 1.366 1.073 3.089 1.723 5.17 1.949v0c1.107 0.12 2.135 0.067 3.085-0.159 0.95-0.226 1.802-0.569 2.556-1.03 0.761-0.461 1.402-0.961 1.923-1.502v0c0.39-0.253 0.747-0.362 1.071-0.326v0c0.358 0.039 0.645 0.201 0.863 0.486 0.21 0.291 0.297 0.599 0.262 0.923v0c-0.042 0.391-0.242 0.715-0.598 0.972v0c-1.101 1.068-2.481 1.947-4.139 2.639-1.658 0.692-3.414 0.938-5.27 0.736zM262.619-15.613v0c0.489 0.067 0.85 0.331 1.083 0.794v0l14.19 24.643c0.196 0.289 0.272 0.596 0.228 0.919v0c-0.053 0.39-0.245 0.713-0.576 0.971-0.337 0.25-0.7 0.349-1.09 0.296v0c-0.449-0.061-0.823-0.328-1.123-0.799v0l-14.24-24.65c-0.167-0.258-0.226-0.566-0.177-0.923v0c0.057-0.416 0.259-0.742 0.608-0.977 0.342-0.236 0.707-0.327 1.097-0.274zM259.174 9.653v0c-0.324-0.044-0.622-0.203-0.894-0.475-0.28-0.267-0.391-0.612-0.334-1.034v0c0.049-0.357 0.203-0.649 0.463-0.876v0l9.664-9.441 1.296 2.559-8.946 8.842c-0.344 0.35-0.76 0.492-1.249 0.425zM279.899-13.256v0c0.423 0.058 0.74 0.225 0.951 0.503 0.211 0.278 0.292 0.595 0.244 0.951v0c-0.022 0.159-0.067 0.317-0.136 0.476-0.074 0.151-0.183 0.284-0.327 0.4v0l-9.708 9.687-1.187-2.544 8.868-9.004c0.414-0.374 0.846-0.531 1.295-0.469z" opacity="1" transform="matrix(1,0,0,1,0,0)" fill="white" class="wordmark-text-0" id="SvgjsPath1068"></path></svg></g></svg></g></svg></g></svg></g><g><svg viewBox="0 0 101.4964687335435 101.78118366401954" height="101.78118366401954" width="101.4964687335435"><g><svg xmlns="http://www.w3.org/2000/svg" xmlns:xlink="http://www.w3.org/1999/xlink" version="1.1" x="0" y="0" viewBox="3.6159474091066253 3.625 92.38405259089338 92.64320563768128" enable-background="new 0 0 100 100" xml:space="preserve" height="101.78118366401954" width="101.4964687335435" class="icon-icon-0" data-fill-palette-color="accent" id="SvgjsSvg1067"><path d="M96 61c0-11-2-21-9-30C76.473 16.645 56.79 10.542 41.093 17.932 51.08 10.011 64.033 11.012 75 15 50.258 2.202 28.43 19.978 18.827 42.242c0.02-0.563 0.056-1.128 0.129-1.697 0 0 0.665-4.83 3.109-11.767C32 7 63 2 82.213 14.691c8.674 6.973 10.213 7.025 10.213 7.025L78.284 7.573c0 0-0.435 0.093-2.179-0.174C72 7 68 4 64 4c-8-1-16 0-23 3-17.502 6.667-29.432 26.53-25.4 44.541C15.383 52.36 15.182 53.18 15 54c-4-4-3-10-3.403-15.116 0.908-7.152 2.407-12.049 2.407-12.049C0.91 53.159 22.091 74.787 46.306 81.197 40.871 81.615 35.435 79.812 30 78 3 67 0 29 19.678 10.315c1.558-2.019 2.038-2.742 2.038-2.742s-3.688 3.658-7.343 7.373c-3.656 3.714-6.799 6.77-6.799 6.77s-0.201 0.926-1.123 3.905C4 34 3 42 4 51c3.517 22.859 28.675 39.523 50.414 31.753C55.277 82.855 56.14 82.938 57 83c-8 5-18 6-27 4 24.75 9.075 44.053-9.756 50.052-31.785C80.025 56.474 80 57.736 80 59c0 6-3 12-6 17-15 21-45 22-63.422 4.568-2.214-1.735-3.004-2.284-3.004-2.284s3.953 4.033 7.37 7.393c3.417 3.36 6.772 6.75 6.772 6.75s0.873 0.159 3.642 0.925C32 95 39 97 47 96c4-1 7-2 11-3 19.067-7.801 31.359-29.871 23.885-48.638C81.959 43.238 82 42.117 82 41c6 10 8 22 3 32 8-15 3-33-9-44-6.845-5.476-14.627-8.607-23.025-10.039C58.316 19.159 63.658 19.863 69 22c5 3 9 6 13 10 16 17 11 43-2.792 58.518-0.886 1.502-0.923 1.909-0.923 1.909l14.142-14.143c0 0-0.113-0.406 0.134-2.16C93 71 96 66 96 61zM69 49.999c0 10.493-8.507 19-19 19-10.494 0-19-8.507-19-19 0-10.494 8.506-19 19-19C60.493 30.999 69 39.505 69 49.999z" fill="black"></path></svg></g></svg></g></svg></g><defs><mask></mask></defs></svg><rect width="395.52" height="78.1007116356701" fill="black" stroke="none" visibility="hidden"></rect></g></mask><linearGradient x1="0" x2="1" y1="0.5" y2="0.5" id="2b1a0a62-abd3-4820-a1a8-9d59f31ddaa4"><stop stop-color="#fff72e" offset="0"></stop><stop stop-color="#deae29" offset="1"></stop></linearGradient><rect width="395.52" height="78.1007116356701" fill="#000000" mask="url(#08a7bdd3-cdce-4e6b-8ed8-e55d4310612b)" data-fill-palette-color="primary"></rect><mask id="4fcb5906-6bc2-4e01-8f5b-a1fade5f9a12"><g id="SvgjsG1090"><svg viewBox="0 0 395.52 78.1007116356701" height="78.1007116356701" width="395.52"><g><svg viewBox="0 0 515.4433669002203 101.78118366401954" height="78.1007116356701" width="395.52"><g transform="matrix(1,0,0,1,119.9233669002204,19.43781566883933)"><svg viewBox="0 0 395.52 62.905552326340874" height="62.905552326340874" width="395.52"><g id="SvgjsG1089"><svg viewBox="0 0 395.52 62.905552326340874" height="62.905552326340874" width="395.52" id="SvgjsSvg1088"><g><svg viewBox="0 0 395.52 62.905552326340874" height="62.905552326340874" width="395.52"><g transform="matrix(1,0,0,1,0,0)"><svg width="395.52" viewBox="1.5393332174714858 -32.44024483397823 279.5678815506309 44.46393321902374" height="62.905552326340874" data-palette-color="url(#2b1a0a62-abd3-4820-a1a8-9d59f31ddaa4)"></svg></g></svg></g></svg></g></svg></g><g><svg viewBox="0 0 101.4964687335435 101.78118366401954" height="101.78118366401954" width="101.4964687335435"><g><svg xmlns="http://www.w3.org/2000/svg" xmlns:xlink="http://www.w3.org/1999/xlink" version="1.1" x="0" y="0" viewBox="3.6159474091066253 3.625 92.38405259089338 92.64320563768128" enable-background="new 0 0 100 100" xml:space="preserve" height="101.78118366401954" width="101.4964687335435" class="icon-icon-0" data-fill-palette-color="accent" id="SvgjsSvg1087"><path d="M96 61c0-11-2-21-9-30C76.473 16.645 56.79 10.542 41.093 17.932 51.08 10.011 64.033 11.012 75 15 50.258 2.202 28.43 19.978 18.827 42.242c0.02-0.563 0.056-1.128 0.129-1.697 0 0 0.665-4.83 3.109-11.767C32 7 63 2 82.213 14.691c8.674 6.973 10.213 7.025 10.213 7.025L78.284 7.573c0 0-0.435 0.093-2.179-0.174C72 7 68 4 64 4c-8-1-16 0-23 3-17.502 6.667-29.432 26.53-25.4 44.541C15.383 52.36 15.182 53.18 15 54c-4-4-3-10-3.403-15.116 0.908-7.152 2.407-12.049 2.407-12.049C0.91 53.159 22.091 74.787 46.306 81.197 40.871 81.615 35.435 79.812 30 78 3 67 0 29 19.678 10.315c1.558-2.019 2.038-2.742 2.038-2.742s-3.688 3.658-7.343 7.373c-3.656 3.714-6.799 6.77-6.799 6.77s-0.201 0.926-1.123 3.905C4 34 3 42 4 51c3.517 22.859 28.675 39.523 50.414 31.753C55.277 82.855 56.14 82.938 57 83c-8 5-18 6-27 4 24.75 9.075 44.053-9.756 50.052-31.785C80.025 56.474 80 57.736 80 59c0 6-3 12-6 17-15 21-45 22-63.422 4.568-2.214-1.735-3.004-2.284-3.004-2.284s3.953 4.033 7.37 7.393c3.417 3.36 6.772 6.75 6.772 6.75s0.873 0.159 3.642 0.925C32 95 39 97 47 96c4-1 7-2 11-3 19.067-7.801 31.359-29.871 23.885-48.638C81.959 43.238 82 42.117 82 41c6 10 8 22 3 32 8-15 3-33-9-44-6.845-5.476-14.627-8.607-23.025-10.039C58.316 19.159 63.658 19.863 69 22c5 3 9 6 13 10 16 17 11 43-2.792 58.518-0.886 1.502-0.923 1.909-0.923 1.909l14.142-14.143c0 0-0.113-0.406 0.134-2.16C93 71 96 66 96 61zM69 49.999c0 10.493-8.507 19-19 19-10.494 0-19-8.507-19-19 0-10.494 8.506-19 19-19C60.493 30.999 69 39.505 69 49.999z" fill="white"></path></svg></g></svg></g></svg></g><defs><mask></mask></defs><mask><g id="SvgjsG1086"><svg viewBox="0 0 395.52 78.1007116356701" height="78.1007116356701" width="395.52"><g><svg viewBox="0 0 515.4433669002203 101.78118366401954" height="78.1007116356701" width="395.52"><g transform="matrix(1,0,0,1,119.9233669002204,19.43781566883933)"><svg viewBox="0 0 395.52 62.905552326340874" height="62.905552326340874" width="395.52"><g id="SvgjsG1085"><svg viewBox="0 0 395.52 62.905552326340874" height="62.905552326340874" width="395.52" id="SvgjsSvg1084"><g><svg viewBox="0 0 395.52 62.905552326340874" height="62.905552326340874" width="395.52"><g transform="matrix(1,0,0,1,0,0)"><svg width="395.52" viewBox="1.5393332174714858 -32.44024483397823 279.5678815506309 44.46393321902374" height="62.905552326340874" data-palette-color="url(#2b1a0a62-abd3-4820-a1a8-9d59f31ddaa4)"><path d="M21.658 10.383v0c-2.496 0.344-4.875 0.223-7.136-0.361-2.26-0.577-4.287-1.543-6.082-2.898-1.789-1.362-3.27-3.053-4.443-5.071-1.166-2.02-1.921-4.278-2.265-6.775v0c-0.344-2.503-0.228-4.885 0.35-7.144 0.584-2.261 1.554-4.285 2.909-6.073 1.361-1.796 3.052-3.277 5.071-4.443 2.019-1.173 4.277-1.931 6.774-2.275v0c1.724-0.237 3.416-0.265 5.076-0.083 1.661 0.189 3.182 0.602 4.561 1.24v0c0.246 0.128 0.44 0.289 0.582 0.485 0.141 0.196 0.227 0.406 0.258 0.631v0c0.063 0.456-0.032 0.842-0.284 1.159-0.252 0.317-0.54 0.498-0.864 0.543v0c-0.165 0.023-0.324 0.018-0.477-0.015-0.152-0.026-0.295-0.064-0.429-0.112v0c-1.194-0.462-2.463-0.782-3.807-0.96-1.35-0.178-2.755-0.166-4.214 0.034v0c-2.787 0.384-5.18 1.356-7.18 2.916-1.998 1.567-3.463 3.539-4.394 5.915-0.931 2.376-1.205 4.961-0.821 7.754v0c0.384 2.787 1.345 5.199 2.883 7.235 1.539 2.036 3.482 3.538 5.829 4.507 2.346 0.962 4.913 1.252 7.701 0.868v0c1.46-0.201 2.9-0.614 4.321-1.24 1.422-0.62 2.619-1.36 3.591-2.221v0l-0.108 1.055-1.54-11.195 0.827 0.583-8.421 1.159c-0.423 0.058-0.8-0.041-1.131-0.299-0.331-0.251-0.523-0.571-0.576-0.96v0c-0.063-0.456 0.034-0.832 0.288-1.13 0.255-0.298 0.594-0.475 1.017-0.534v0l9.293-1.279c0.423-0.058 0.792 0.032 1.107 0.272 0.315 0.233 0.501 0.56 0.559 0.983v0l1.614 11.729c0.035 0.258 0.003 0.511-0.097 0.761-0.101 0.243-0.253 0.462-0.454 0.658v0c-1.293 1.167-2.785 2.157-4.478 2.968-1.692 0.812-3.495 1.349-5.41 1.613zM57.4-19.404v0c0.424-0.044 0.791 0.066 1.1 0.33 0.302 0.264 0.475 0.608 0.518 1.032v0l2.258 21.995c0.04 0.391-0.071 0.748-0.332 1.069-0.262 0.322-0.588 0.503-0.98 0.543v0c-0.458 0.047-0.831-0.062-1.119-0.327-0.295-0.265-0.463-0.592-0.503-0.984v0l-0.598-5.82 0.796-0.473c0.093 0.909-0.063 1.863-0.47 2.863-0.407 0.993-1.01 1.943-1.808 2.849-0.798 0.906-1.765 1.672-2.901 2.299-1.135 0.626-2.403 1.011-3.802 1.154v0c-2.188 0.225-4.21-0.144-6.065-1.106-1.861-0.962-3.391-2.383-4.589-4.264-1.199-1.887-1.926-4.068-2.18-6.541v0c-0.261-2.547 0.012-4.84 0.822-6.88 0.816-2.041 2.029-3.703 3.639-4.988 1.611-1.285 3.493-2.038 5.649-2.259v0c1.399-0.144 2.734-0.036 4.004 0.323 1.271 0.365 2.407 0.926 3.41 1.68 0.995 0.749 1.811 1.644 2.447 2.684 0.636 1.04 1.015 2.148 1.135 3.322v0l-1.11-0.63-0.638-6.207c-0.044-0.424 0.052-0.796 0.288-1.116 0.229-0.318 0.572-0.501 1.029-0.548zM49.567 4.361v0c1.724-0.177 3.21-0.782 4.458-1.815 1.241-1.032 2.165-2.377 2.772-4.034 0.6-1.663 0.8-3.47 0.6-5.42v0c-0.197-1.923-0.756-3.612-1.676-5.065-0.927-1.453-2.103-2.569-3.531-3.347-1.433-0.771-3.012-1.068-4.736-0.891v0c-1.691 0.174-3.168 0.768-4.431 1.782-1.262 1.021-2.199 2.337-2.811 3.948-0.605 1.61-0.806 3.41-0.602 5.399v0c0.2 1.95 0.756 3.679 1.669 5.187 0.911 1.501 2.09 2.63 3.534 3.387 1.445 0.756 3.029 1.046 4.754 0.869zM78.301-21.052v0c2.029-0.129 3.796 0.293 5.301 1.267 1.504 0.967 2.586 2.481 3.245 4.544v0l-0.677 0.233 0.234-0.897c0.364-1.005 1.017-1.975 1.959-2.91 0.943-0.928 2.034-1.692 3.272-2.292 1.244-0.607 2.518-0.951 3.822-1.034v0c2.063-0.131 3.751 0.206 5.064 1.011 1.313 0.798 2.303 1.925 2.97 3.379 0.666 1.447 1.059 3.102 1.177 4.965v0l0.881 13.882c0.025 0.393-0.093 0.744-0.353 1.055-0.254 0.31-0.594 0.479-1.02 0.505v0c-0.426 0.027-0.788-0.097-1.086-0.372-0.298-0.275-0.46-0.609-0.485-1.001v0l-0.872-13.732c-0.085-1.337-0.372-2.548-0.861-3.633-0.496-1.084-1.225-1.926-2.185-2.527-0.953-0.594-2.198-0.842-3.735-0.744v0c-1.344 0.085-2.607 0.493-3.79 1.222-1.182 0.736-2.124 1.685-2.825 2.845-0.695 1.16-0.999 2.408-0.915 3.746v0l0.872 13.732c0.025 0.393-0.093 0.744-0.354 1.054-0.261 0.31-0.601 0.479-1.02 0.506v0c-0.426 0.027-0.788-0.097-1.085-0.372-0.298-0.275-0.46-0.609-0.485-1.001v0l-0.881-13.882c-0.085-1.337-0.358-2.532-0.819-3.586-0.461-1.053-1.151-1.871-2.07-2.453-0.925-0.583-2.14-0.826-3.643-0.731v0c-1.337 0.085-2.584 0.485-3.742 1.2-1.15 0.714-2.061 1.634-2.731 2.758-0.663 1.124-0.953 2.355-0.867 3.693v0l0.881 13.882c0.025 0.393-0.1 0.744-0.374 1.055-0.281 0.312-0.617 0.48-1.01 0.506v0c-0.452 0.029-0.821-0.095-1.105-0.371-0.278-0.276-0.43-0.611-0.455-1.003v0l-1.395-21.966c-0.025-0.393 0.093-0.744 0.354-1.055 0.26-0.317 0.6-0.489 1.02-0.515v0c0.426-0.027 0.788 0.1 1.086 0.382 0.298 0.275 0.46 0.609 0.484 1.001v0l0.29 4.561-1.213 1.89c0.038-0.984 0.295-1.983 0.772-2.995 0.476-1.019 1.132-1.949 1.967-2.79 0.828-0.841 1.793-1.533 2.894-2.077 1.094-0.544 2.264-0.855 3.508-0.935zM123.999 2.671v0c-2.519 0.058-4.758-0.43-6.715-1.466-1.958-1.035-3.499-2.507-4.623-4.414-1.124-1.908-1.716-4.155-1.776-6.741v0c-0.064-2.779 0.431-5.165 1.485-7.156 1.048-1.991 2.436-3.54 4.164-4.648 1.728-1.1 3.576-1.673 5.542-1.718v0c1.44-0.033 2.845 0.188 4.216 0.663 1.371 0.475 2.592 1.201 3.662 2.176 1.069 0.976 1.947 2.176 2.633 3.6 0.686 1.425 1.068 3.086 1.146 4.985v0c0.009 0.393-0.13 0.733-0.417 1.02-0.287 0.28-0.627 0.425-1.02 0.434v0l-19.695 0.454-0.651-2.636 19.355-0.446-0.626 0.605-0.023-0.98c-0.202-1.536-0.739-2.834-1.61-3.894-0.878-1.06-1.923-1.856-3.136-2.388-1.206-0.526-2.462-0.773-3.768-0.744v0c-0.986 0.023-1.988 0.243-3.006 0.66-1.024 0.41-1.946 1.045-2.767 1.904-0.814 0.852-1.466 1.931-1.956 3.236-0.497 1.305-0.725 2.841-0.684 4.607v0c0.045 1.933 0.478 3.677 1.301 5.231 0.823 1.555 1.981 2.772 3.475 3.651 1.494 0.886 3.288 1.305 5.381 1.257v0c1.113-0.026 2.126-0.212 3.038-0.561 0.912-0.348 1.712-0.8 2.399-1.355 0.694-0.556 1.264-1.136 1.71-1.74v0c0.353-0.302 0.693-0.456 1.02-0.464v0c0.36-0.008 0.666 0.115 0.919 0.369 0.246 0.261 0.373 0.555 0.38 0.882v0c0.009 0.393-0.146 0.74-0.466 1.041v0c-0.953 1.202-2.205 2.255-3.758 3.157-1.553 0.903-3.262 1.376-5.129 1.419zM164.658-32.215v0c0.453 0.004 0.819 0.137 1.096 0.399 0.278 0.269 0.415 0.6 0.412 0.994v0c-0.002 0.227-0.054 0.47-0.156 0.728v0l-13.388 31.237c-0.163 0.325-0.375 0.567-0.636 0.725-0.268 0.164-0.532 0.245-0.792 0.243v0c-0.293-0.003-0.569-0.088-0.828-0.257-0.265-0.162-0.447-0.391-0.544-0.685v0l-12.792-31.41c-0.033-0.094-0.065-0.207-0.097-0.341-0.032-0.134-0.048-0.28-0.047-0.44v0c0.004-0.427 0.163-0.772 0.479-1.036 0.309-0.257 0.627-0.385 0.954-0.382v0c0.693 0.006 1.184 0.37 1.47 1.092v0l12.029 29.484-0.88-0.007 12.331-29.376c0.332-0.651 0.795-0.973 1.389-0.968zM193.572-9.22v0c-0.1 2.491-0.738 4.704-1.917 6.639-1.172 1.935-2.712 3.431-4.623 4.489-1.91 1.051-4.044 1.53-6.402 1.436v0c-2.325-0.093-4.404-0.74-6.238-1.941-1.84-1.208-3.267-2.823-4.28-4.845-1.02-2.022-1.48-4.279-1.381-6.77v0c0.101-2.518 0.74-4.738 1.918-6.659 1.171-1.915 2.722-3.407 4.652-4.478 1.924-1.071 4.049-1.56 6.374-1.466v0c2.358 0.094 4.447 0.751 6.266 1.971 1.819 1.22 3.236 2.831 4.251 4.834 1.021 2.009 1.481 4.273 1.38 6.79zM190.624-9.337v0c0.08-1.992-0.259-3.783-1.016-5.375-0.751-1.585-1.821-2.855-3.211-3.811-1.39-0.956-3-1.471-4.832-1.545v0c-1.799-0.072-3.429 0.313-4.89 1.156-1.461 0.842-2.64 2.023-3.534 3.542-0.895 1.525-1.382 3.284-1.462 5.276v0c-0.08 1.998 0.266 3.784 1.037 5.355 0.771 1.572 1.852 2.836 3.241 3.793 1.39 0.956 2.984 1.47 4.783 1.542v0c1.832 0.073 3.479-0.311 4.94-1.154 1.461-0.842 2.629-2.017 3.503-3.523 0.881-1.506 1.361-3.258 1.441-5.256zM200.236 3.838v0c-0.452-0.03-0.802-0.2-1.048-0.51-0.24-0.31-0.347-0.661-0.322-1.053v0l1.442-21.963c0.026-0.392 0.188-0.726 0.487-1 0.299-0.281 0.658-0.408 1.077-0.38v0c0.426 0.028 0.768 0.201 1.028 0.518 0.26 0.311 0.377 0.663 0.352 1.056v0l-0.483 7.354-0.748 0.091c0.175-1.138 0.535-2.253 1.082-3.346 0.547-1.1 1.26-2.095 2.14-2.986 0.88-0.891 1.905-1.595 3.075-2.114 1.163-0.512 2.446-0.721 3.85-0.629v0c0.592 0.039 1.156 0.196 1.692 0.472 0.543 0.283 0.796 0.704 0.759 1.263v0c-0.032 0.492-0.19 0.859-0.473 1.101-0.276 0.242-0.594 0.352-0.953 0.328v0c-0.293-0.019-0.607-0.12-0.943-0.302-0.328-0.189-0.772-0.301-1.33-0.338v0c-0.911-0.06-1.844 0.15-2.798 0.628-0.953 0.479-1.833 1.152-2.638 2.022-0.812 0.862-1.477 1.844-1.997 2.945-0.513 1.095-0.807 2.215-0.882 3.359v0l-0.795 12.114c-0.026 0.392-0.195 0.725-0.507 0.999-0.319 0.273-0.674 0.397-1.067 0.371zM217.905-19.97v0l11.408 0.981c0.392 0.034 0.705 0.201 0.941 0.502 0.235 0.301 0.336 0.648 0.302 1.04v0c-0.031 0.359-0.187 0.656-0.469 0.893-0.282 0.243-0.619 0.348-1.01 0.315v0l-11.408-0.981c-0.392-0.034-0.715-0.202-0.97-0.505-0.248-0.302-0.357-0.633-0.327-0.992v0c0.034-0.392 0.198-0.706 0.493-0.941 0.302-0.242 0.649-0.346 1.04-0.312zM223.54-26.431v0c0.425 0.037 0.765 0.213 1.018 0.529 0.247 0.316 0.354 0.669 0.32 1.061v0l-2.113 24.57c-0.079 0.917-0.015 1.615 0.192 2.094 0.207 0.473 0.5 0.802 0.878 0.988 0.379 0.18 0.765 0.287 1.157 0.321v0c0.259 0.022 0.499-0.001 0.719-0.069 0.219-0.061 0.459-0.081 0.717-0.059v0c0.299 0.026 0.545 0.161 0.738 0.405 0.186 0.25 0.263 0.555 0.233 0.913v0c-0.039 0.458-0.331 0.818-0.876 1.079-0.552 0.267-1.186 0.37-1.903 0.308v0c-0.292-0.025-0.729-0.086-1.309-0.182-0.587-0.104-1.176-0.335-1.767-0.694-0.598-0.366-1.065-0.958-1.403-1.777-0.338-0.819-0.444-1.962-0.318-3.43v0l2.126-24.719c0.034-0.392 0.199-0.722 0.497-0.991 0.304-0.268 0.669-0.384 1.094-0.347zM244.465 8.258v0c-2.505-0.272-4.661-1.048-6.466-2.33-1.806-1.282-3.141-2.942-4.007-4.981-0.865-2.038-1.159-4.343-0.88-6.915v0c0.3-2.764 1.102-5.064 2.408-6.901 1.299-1.837 2.877-3.192 4.735-4.063 1.857-0.865 3.764-1.191 5.719-0.979v0c1.432 0.155 2.796 0.558 4.094 1.208 1.297 0.65 2.413 1.529 3.345 2.636 0.933 1.107 1.646 2.411 2.141 3.913 0.494 1.502 0.656 3.199 0.484 5.092v0c-0.042 0.391-0.224 0.71-0.546 0.957-0.321 0.24-0.677 0.339-1.068 0.296v0l-19.586-2.123-0.301-2.698 19.248 2.086-0.7 0.518 0.105-0.974c0-1.549-0.362-2.906-1.087-4.071-0.732-1.166-1.664-2.092-2.797-2.778-1.127-0.679-2.34-1.088-3.639-1.229v0c-0.981-0.106-2.003-0.019-3.066 0.261-1.069 0.273-2.066 0.782-2.992 1.527-0.918 0.739-1.706 1.723-2.362 2.952-0.663 1.229-1.09 2.722-1.28 4.478v0c-0.208 1.922-0.006 3.708 0.606 5.357 0.613 1.649 1.602 3.007 2.969 4.073 1.366 1.073 3.089 1.723 5.17 1.949v0c1.107 0.12 2.135 0.067 3.085-0.159 0.95-0.226 1.802-0.569 2.556-1.03 0.761-0.461 1.402-0.961 1.923-1.502v0c0.39-0.253 0.747-0.362 1.071-0.326v0c0.358 0.039 0.645 0.201 0.863 0.486 0.21 0.291 0.297 0.599 0.262 0.923v0c-0.042 0.391-0.242 0.715-0.598 0.972v0c-1.101 1.068-2.481 1.947-4.139 2.639-1.658 0.692-3.414 0.938-5.27 0.736zM262.619-15.613v0c0.489 0.067 0.85 0.331 1.083 0.794v0l14.19 24.643c0.196 0.289 0.272 0.596 0.228 0.919v0c-0.053 0.39-0.245 0.713-0.576 0.971-0.337 0.25-0.7 0.349-1.09 0.296v0c-0.449-0.061-0.823-0.328-1.123-0.799v0l-14.24-24.65c-0.167-0.258-0.226-0.566-0.177-0.923v0c0.057-0.416 0.259-0.742 0.608-0.977 0.342-0.236 0.707-0.327 1.097-0.274zM259.174 9.653v0c-0.324-0.044-0.622-0.203-0.894-0.475-0.28-0.267-0.391-0.612-0.334-1.034v0c0.049-0.357 0.203-0.649 0.463-0.876v0l9.664-9.441 1.296 2.559-8.946 8.842c-0.344 0.35-0.76 0.492-1.249 0.425zM279.899-13.256v0c0.423 0.058 0.74 0.225 0.951 0.503 0.211 0.278 0.292 0.595 0.244 0.951v0c-0.022 0.159-0.067 0.317-0.136 0.476-0.074 0.151-0.183 0.284-0.327 0.4v0l-9.708 9.687-1.187-2.544 8.868-9.004c0.414-0.374 0.846-0.531 1.295-0.469z" opacity="1" transform="matrix(1,0,0,1,0,0)" fill="black" class="wordmark-text-0" id="SvgjsPath1083"></path></svg></g></svg></g></svg></g></svg></g><g><svg viewBox="0 0 101.4964687335435 101.78118366401954" height="101.78118366401954" width="101.4964687335435"><g><svg xmlns="http://www.w3.org/2000/svg" xmlns:xlink="http://www.w3.org/1999/xlink" version="1.1" x="0" y="0" viewBox="3.6159474091066253 3.625 92.38405259089338 92.64320563768128" enable-background="new 0 0 100 100" xml:space="preserve" height="101.78118366401954" width="101.4964687335435" class="icon-icon-0" data-fill-palette-color="accent" id="SvgjsSvg1082"><path d="M96 61c0-11-2-21-9-30C76.473 16.645 56.79 10.542 41.093 17.932 51.08 10.011 64.033 11.012 75 15 50.258 2.202 28.43 19.978 18.827 42.242c0.02-0.563 0.056-1.128 0.129-1.697 0 0 0.665-4.83 3.109-11.767C32 7 63 2 82.213 14.691c8.674 6.973 10.213 7.025 10.213 7.025L78.284 7.573c0 0-0.435 0.093-2.179-0.174C72 7 68 4 64 4c-8-1-16 0-23 3-17.502 6.667-29.432 26.53-25.4 44.541C15.383 52.36 15.182 53.18 15 54c-4-4-3-10-3.403-15.116 0.908-7.152 2.407-12.049 2.407-12.049C0.91 53.159 22.091 74.787 46.306 81.197 40.871 81.615 35.435 79.812 30 78 3 67 0 29 19.678 10.315c1.558-2.019 2.038-2.742 2.038-2.742s-3.688 3.658-7.343 7.373c-3.656 3.714-6.799 6.77-6.799 6.77s-0.201 0.926-1.123 3.905C4 34 3 42 4 51c3.517 22.859 28.675 39.523 50.414 31.753C55.277 82.855 56.14 82.938 57 83c-8 5-18 6-27 4 24.75 9.075 44.053-9.756 50.052-31.785C80.025 56.474 80 57.736 80 59c0 6-3 12-6 17-15 21-45 22-63.422 4.568-2.214-1.735-3.004-2.284-3.004-2.284s3.953 4.033 7.37 7.393c3.417 3.36 6.772 6.75 6.772 6.75s0.873 0.159 3.642 0.925C32 95 39 97 47 96c4-1 7-2 11-3 19.067-7.801 31.359-29.871 23.885-48.638C81.959 43.238 82 42.117 82 41c6 10 8 22 3 32 8-15 3-33-9-44-6.845-5.476-14.627-8.607-23.025-10.039C58.316 19.159 63.658 19.863 69 22c5 3 9 6 13 10 16 17 11 43-2.792 58.518-0.886 1.502-0.923 1.909-0.923 1.909l14.142-14.143c0 0-0.113-0.406 0.134-2.16C93 71 96 66 96 61zM69 49.999c0 10.493-8.507 19-19 19-10.494 0-19-8.507-19-19 0-10.494 8.506-19 19-19C60.493 30.999 69 39.505 69 49.999z" fill="black"></path></svg></g></svg></g></svg></g><defs><mask></mask></defs></svg><rect width="395.52" height="78.1007116356701" fill="black" stroke="none" visibility="hidden"></rect></g></mask></svg><rect width="395.52" height="78.1007116356701" fill="black" stroke="none" visibility="hidden"></rect></g></mask><linearGradient x1="0" x2="1" y1="0.5" y2="0.5" id="43f3a8a5-e8b3-400c-be22-df63f9defbc0"><stop stop-color="#fff72e" offset="0"></stop><stop stop-color="#deae29" offset="1"></stop></linearGradient><rect width="395.52" height="78.1007116356701" fill="#000000" mask="url(#4fcb5906-6bc2-4e01-8f5b-a1fade5f9a12)" data-fill-palette-color="accent"></rect></svg><rect width="395.52" height="78.1007116356701" fill="none" stroke="none" visibility="hidden"></rect></g></svg></g></svg>